
Enum "alerta_nivel_urgencia_enum" {
  "Baja"
  "Media"
  "Alta"
}

Enum "recomendacion_prioridad_enum" {
  "Baja"
  "Media"
  "Alta"
}

Enum "deteccion_gusano_cogollero_resultado_deteccion_enum" {
  "Detectado"
  "No Detectado"
  "Indeterminado"
}

Table "estado_usuario" {
  "id" INT [pk, not null, increment]
  "nombre" VARCHAR(50) [unique, not null]
  "descripcion" TEXT
  "fecha_creacion" TIMESTAMP [not null, default: `CURRENT_TIMESTAMPATTIMEZONE'UTC'`]
  "fecha_modificacion" TIMESTAMP [default: `NULL`]
}

Table "usuario" {
  "id" INT [pk, not null, increment]
  "nombre" VARCHAR(50) [not null]
  "apellido" VARCHAR(50) [not null]
  "email" VARCHAR(100) [unique, not null]
  "password" VARCHAR(255) [not null]
  "failed_attempts" INT [not null, default: 0]
  "locked_until" TIMESTAMP [default: `NULL`]
  "state_id" INT [not null]
  "fecha_creacion" TIMESTAMP [not null, default: `CURRENT_TIMESTAMPATTIMEZONE'UTC'`]
  "fecha_modificacion" TIMESTAMP [default: `NULL`]
}

Table "confirmacion_usuario" {
  "id" INT [pk, increment]
  "usuario_id" INT [not null]
  "pin" VARCHAR(64) [not null]
  "expiracion" TIMESTAMP [not null]
  "intentos" INT [default: 0]
  "created_at" TIMESTAMP [not null, default: `CURRENT_TIMESTAMPATTIMEZONE'UTC'`]
  "resends" INT [default: 0]
}

Table "verificacion_dos_pasos" {
  "id" INT [pk, increment]
  "usuario_id" INT [not null]
  "pin" VARCHAR(64) [not null]
  "expiracion" TIMESTAMP [not null]
  "intentos" INT [default: 0]
  "created_at" TIMESTAMP [not null, default: `CURRENT_TIMESTAMPATTIMEZONE'UTC'`]
  "resends" INT [default: 0]
}

Table "recuperacion_contrasena" {
  "id" INT [pk, increment]
  "usuario_id" INT [not null]
  "pin" VARCHAR(64) [not null]
  "expiracion" TIMESTAMP [not null]
  "intentos" INT [default: 0]
  "pin_confirmado" BOOLEAN [not null, default: false]
  "created_at" TIMESTAMP [not null, default: `CURRENT_TIMESTAMPATTIMEZONE'UTC'`]
  "resends" INT [default: 0]
}

Table "rol" {
  "id" INT [pk, not null, increment]
  "nombre" VARCHAR(50) [unique, not null]
  "descripcion" TEXT
  "fecha_creacion" TIMESTAMP [not null, default: `CURRENT_TIMESTAMPATTIMEZONE'UTC'`]
  "fecha_modificacion" TIMESTAMP [default: `NULL`]
}

Table "permiso" {
  "id" INT [pk, not null, increment]
  "nombre" VARCHAR(50) [unique, not null]
  "descripcion" TEXT
  "accion" VARCHAR(100) [not null]
  "fecha_creacion" TIMESTAMP [not null, default: `CURRENT_TIMESTAMPATTIMEZONE'UTC'`]
  "fecha_modificacion" TIMESTAMP [default: `NULL`]
}

Table "rol_permiso" {
  "rol_id" INT [not null]
  "permiso_id" INT [not null]
  "fecha_creacion" TIMESTAMP [not null, default: `CURRENT_TIMESTAMPATTIMEZONE'UTC'`]
  "fecha_modificacion" TIMESTAMP [default: `NULL`]

  Indexes {
    (rol_id, permiso_id) [pk]
  }
}

Table "finca" {
  "id" INT [pk, not null, increment]
  "nombre" VARCHAR(100) [not null]
  "ubicacion" VARCHAR(255)
  "area_total" DECIMAL(10,2) [not null]
  "unidad_area_id" INT [not null]
  "fecha_creacion" TIMESTAMP [not null, default: `CURRENT_TIMESTAMPATTIMEZONE'UTC'`]
  "fecha_modificacion" TIMESTAMP [default: `NULL`]
}

Table "usuario_finca_rol" {
  "id" INT [pk, not null, increment]
  "usuario_id" INT [not null]
  "finca_id" INT [not null]
  "rol_id" INT [not null]
  "fecha_creacion" TIMESTAMP [not null, default: `CURRENT_TIMESTAMPATTIMEZONE'UTC'`]
  "fecha_modificacion" TIMESTAMP [default: `NULL`]

  Indexes {
    (usuario_id, finca_id, rol_id) [unique, name: "usuario_finca_rol_unique"]
  }
}

Table "blacklisted_tokens" {
  "id" INT [pk, increment]
  "token" VARCHAR(500) [unique, not null]
  "usuario_id" INT [not null]
  "blacklisted_at" TIMESTAMP [default: `CURRENT_TIMESTAMPATTIMEZONE'UTC'`]
}

Table "lote" {
  "id" INT [pk, not null, increment]
  "nombre" VARCHAR(100) [not null]
  "area" DECIMAL(10,2) [not null]
  "unidad_area_id" INT [not null]
  "latitud" DECIMAL(10,8) [not null]
  "longitud" DECIMAL(11,8) [not null]
  "finca_id" INT [not null]
  "fecha_creacion" TIMESTAMP [not null, default: `CURRENT_TIMESTAMPATTIMEZONE'UTC'`]
  "fecha_modificacion" TIMESTAMP [default: `NULL`]
}

Table "tipo_grano" {
  "id" INT [pk, not null, increment]
  "nombre" VARCHAR(50) [unique, not null]
  "color" VARCHAR(50)
  "descripcion" TEXT
  "fecha_creacion" TIMESTAMP [not null, default: `CURRENT_TIMESTAMPATTIMEZONE'UTC'`]
  "fecha_modificacion" TIMESTAMP [default: `NULL`]
}

Table "variedad_maiz" {
  "id" INT [pk, not null, increment]
  "nombre" VARCHAR(100) [unique, not null]
  "nombre_cientifico" VARCHAR(100)
  "descripcion" TEXT
  "altura_planta" DECIMAL(5,2)
  "altura_planta_unidad_id" INT
  "rendimiento_promedio" DECIMAL(5,2) [not null]
  "rendimiento_promedio_unidad_id" INT
  "tipo_grano_id" INT [not null]
  "densidad_siembra" DECIMAL(7,2)
  "densidad_siembra_unidad_id" INT
  "fecha_creacion" TIMESTAMP [not null, default: `CURRENT_TIMESTAMPATTIMEZONE'UTC'`]
  "fecha_modificacion" TIMESTAMP [default: `NULL`]
}

Table "cultivo" {
  "id" INT [pk, not null, increment]
  "lote_id" INT [not null]
  "variedad_maiz_id" INT [not null]
  "fecha_siembra" DATE [not null]
  "area_sembrada" DECIMAL(10,2) [not null]
  "area_sembrada_unidad_id" INT
  "densidad_siembra" INT [not null]
  "densidad_siembra_unidad_id" INT
  "estado_id" INT [not null]
  "fecha_cosecha" DATE [not null]
  "produccion_total" INT [not null]
  "produccion_total_unidad_id" INT
  "precio_venta_unitario" DECIMAL(10,2) [not null]
  "precio_venta_unitario_unidad_id" INT
  "cantidad_vendida" INT [not null]
  "ingreso_total" DECIMAL(15,2) [not null]
  "costo_produccion" DECIMAL(15,2) [not null]
  "fecha_venta" DATE [not null]
  "observaciones" TEXT
  "fecha_creacion" TIMESTAMP [not null, default: `CURRENT_TIMESTAMPATTIMEZONE'UTC'`]
  "fecha_modificacion" TIMESTAMP [default: `NULL`]
}

Table "unidad_medida" {
  "id" INT [pk, increment]
  "nombre" VARCHAR(50) [unique, not null]
  "abreviatura" VARCHAR(10) [unique, not null]
  "categoria_id" INT [not null]
  "fecha_creacion" TIMESTAMP [not null, default: `CURRENT_TIMESTAMPATTIMEZONE'UTC'`]
  "fecha_modificacion" TIMESTAMP [default: `NULL`]
}

Table "categoria_unidad_medida" {
  "id" INT [pk, increment]
  "nombre" VARCHAR(50) [unique, not null]
  "descripcion" TEXT
  "fecha_creacion" TIMESTAMP [not null, default: `CURRENT_TIMESTAMPATTIMEZONE'UTC'`]
  "fecha_modificacion" TIMESTAMP [default: `NULL`]
}

Table "tipo_labor_cultural" {
  "id" INT [pk, not null, increment]
  "nombre" VARCHAR(100) [unique, not null]
  "descripcion" TEXT
  "fecha_creacion" TIMESTAMP [not null, default: `CURRENT_TIMESTAMPATTIMEZONE'UTC'`]
  "fecha_modificacion" TIMESTAMP [default: `NULL`]
}

Table "tarea_labor_cultural" {
  "id" INT [pk, not null, increment]
  "nombre" VARCHAR(255) [not null]
  "tipo_labor_id" INT [not null]
  "fecha_inicio_estimada" DATE [not null]
  "fecha_finalizacion" DATE
  "descripcion" TEXT
  "estado_id" INT [not null]
  "lote_id" INT [not null]
  "fecha_creacion" TIMESTAMP [not null, default: `CURRENT_TIMESTAMPATTIMEZONE'UTC'`]
  "fecha_modificacion" TIMESTAMP [default: `NULL`]
}

Table "tipo_insumo_agricola" {
  "id" INT [pk, not null, increment]
  "nombre" VARCHAR(100) [unique, not null]
  "descripcion" TEXT
  "unidad_medida_id" INT
  "fecha_creacion" TIMESTAMP [not null, default: `CURRENT_TIMESTAMPATTIMEZONE'UTC'`]
  "fecha_modificacion" TIMESTAMP [default: `NULL`]
}

Table "etapa_fenologica" {
  "id" INT [pk, not null, increment]
  "variedad_maiz_id" INT [not null]
  "nombre_etapa" VARCHAR(50) [not null]
  "duracion" INT [not null]
  "descripcion" TEXT
  "fecha_creacion" TIMESTAMP [not null, default: `CURRENT_TIMESTAMPATTIMEZONE'UTC'`]
  "fecha_modificacion" TIMESTAMP [default: `NULL`]
}

Table "caracteristicas_fenotipicas" {
  "id" INT [pk, not null, increment]
  "cultivo_id" INT [not null]
  "altura_planta" DECIMAL(5,2) [not null]
  "altura_planta_unidad_id" INT
  "diametro_tallo" DECIMAL(4,2) [not null]
  "diametro_tallo_unidad_id" INT
  "numero_hojas" INT [not null]
  "observaciones" TEXT
  "fecha_creacion" TIMESTAMP [not null, default: `CURRENT_TIMESTAMPATTIMEZONE'UTC'`]
  "fecha_modificacion" TIMESTAMP [default: `NULL`]
}

Table "tipo_alerta" {
  "id" INT [pk, not null, increment]
  "nombre" VARCHAR(50) [unique, not null]
  "descripcion" TEXT
  "fecha_creacion" TIMESTAMP [not null, default: `CURRENT_TIMESTAMPATTIMEZONE'UTC'`]
  "fecha_modificacion" TIMESTAMP [default: `NULL`]
}

Table "estado_alerta" {
  "id" INT [pk, not null, increment]
  "nombre" VARCHAR(50) [unique, not null]
  "descripcion" TEXT
  "fecha_creacion" TIMESTAMP [not null, default: `CURRENT_TIMESTAMPATTIMEZONE'UTC'`]
  "fecha_modificacion" TIMESTAMP [default: `NULL`]
}

Table "alerta" {
  "id" INT [pk, not null, increment]
  "lote_id" INT [not null]
  "tipo_alerta" INT [not null]
  "descripcion" TEXT [not null]
  "fecha_generacion" TIMESTAMP [not null, default: `CURRENT_TIMESTAMPATTIMEZONE'UTC'`]
  "nivel_urgencia" alerta_nivel_urgencia_enum [not null]
  "estado_id" INT [not null]
  "fecha_modificacion" TIMESTAMP [default: `NULL`]
}

Table "tipo_notificacion" {
  "id" INT [pk, not null, increment]
  "nombre" VARCHAR(50) [unique, not null]
  "descripcion" TEXT
  "fecha_creacion" TIMESTAMP [not null, default: `CURRENT_TIMESTAMPATTIMEZONE'UTC'`]
  "fecha_modificacion" TIMESTAMP [default: `NULL`]
}

Table "estado_notificacion" {
  "id" INT [pk, not null, increment]
  "nombre" VARCHAR(50) [unique, not null]
  "descripcion" TEXT
  "fecha_creacion" TIMESTAMP [not null, default: `CURRENT_TIMESTAMPATTIMEZONE'UTC'`]
  "fecha_modificacion" TIMESTAMP [default: `NULL`]
}

Table "notificacion" {
  "id" INT [pk, not null, increment]
  "usuario_id" INT [not null]
  "tipo_notificacion" INT [not null]
  "mensaje" TEXT [not null]
  "leido" BOOLEAN [not null, default: `false`]
  "fecha_generacion" TIMESTAMP [not null, default: `CURRENT_TIMESTAMPATTIMEZONE'UTC'`]
  "estado_id" INT [not null]
  "fecha_modificacion" TIMESTAMP [default: `NULL`]
}

Table "tipo_recomendacion" {
  "id" INT [pk, not null, increment]
  "nombre" VARCHAR(50) [unique, not null]
  "descripcion" TEXT
  "fecha_creacion" TIMESTAMP [not null, default: `CURRENT_TIMESTAMPATTIMEZONE'UTC'`]
  "fecha_modificacion" TIMESTAMP [default: `NULL`]
}

Table "recomendacion" {
  "id" INT [pk, not null, increment]
  "lote_id" INT [not null]
  "tipo_recomendacion_id" INT [not null]
  "descripcion" TEXT [not null]
  "fecha_generacion" TIMESTAMP [not null, default: `CURRENT_TIMESTAMPATTIMEZONE'UTC'`]
  "prioridad" recomendacion_prioridad_enum [not null]
  "estado_id" INT [not null]
  "fecha_modificacion" TIMESTAMP [default: `NULL`]
}

Table "accion_mitigacion" {
  "id" INT [pk, not null, increment]
  "recomendacion_id" INT
  "descripcion" TEXT [not null]
  "fecha_inicio" DATE [not null]
  "fecha_fin" DATE
  "estado_id" INT [not null]
  "resultado" TEXT
  "fecha_creacion" TIMESTAMP [not null, default: `CURRENT_TIMESTAMPATTIMEZONE'UTC'`]
  "fecha_modificacion" TIMESTAMP [default: `NULL`]
}

Table "aplicacion_insumo" {
  "id" INT [pk, increment]
  "tarea_labor_id" INT [not null]
  "insumo_id" INT
  "fecha_aplicacion" DATE [not null]
  "cantidad" DECIMAL(10,2) [not null]
  "costo_unitario" DECIMAL(10,2) [not null]
  "costo_total" DECIMAL(10,2) [not null]
  "observaciones" TEXT
  "fecha_creacion" TIMESTAMP [default: `CURRENT_TIMESTAMPATTIMEZONE'UTC'`]
  "fecha_modificacion" TIMESTAMP [default: `NULL`]
}

Table "uso_maquinaria" {
  "id" INT [pk, increment]
  "tarea_labor_id" INT [not null]
  "maquinaria_id" INT
  "fecha_uso" DATE [not null]
  "horas_uso" DECIMAL(5,2) [not null]
  "costo_total" DECIMAL(10,2) [not null]
  "fecha_creacion" TIMESTAMP [default: `CURRENT_TIMESTAMPATTIMEZONE'UTC'`]
  "fecha_modificacion" TIMESTAMP [default: `NULL`]
}

Table "tipo_maquinaria_agricola" {
  "id" INT [pk, increment]
  "nombre" VARCHAR(255) [not null]
  "descripcion" VARCHAR(255) [not null]
  "costo_hora" DECIMAL(10,2) [not null]
  "fecha_creacion" TIMESTAMP [default: `CURRENT_TIMESTAMPATTIMEZONE'UTC'`]
  "fecha_modificacion" TIMESTAMP [default: `NULL`]
}

Table "asignacion" {
  "usuario_id" INT [not null]
  "tarea_labor_cultural_id" INT [not null]
  "fecha_creacion" TIMESTAMP [not null, default: `CURRENT_TIMESTAMPATTIMEZONE'UTC'`]
  "fecha_modificacion" TIMESTAMP [default: `NULL`]

  Indexes {
    (usuario_id, tarea_labor_cultural_id) [pk]
  }
}

Table "estado_cultivo" {
  "id" INT [pk, not null, increment]
  "nombre" VARCHAR(50) [unique, not null]
  "descripcion" TEXT
  "fecha_creacion" TIMESTAMP [not null, default: `CURRENT_TIMESTAMPATTIMEZONE'UTC'`]
  "fecha_modificacion" TIMESTAMP [default: `NULL`]
}

Table "estado_tarea_labor_cultural" {
  "id" INT [pk, not null, increment]
  "nombre" VARCHAR(50) [unique, not null]
  "descripcion" TEXT
  "fecha_creacion" TIMESTAMP [not null, default: `CURRENT_TIMESTAMPATTIMEZONE'UTC'`]
  "fecha_modificacion" TIMESTAMP [default: `NULL`]
}

Table "estado_recomendacion" {
  "id" INT [pk, not null, increment]
  "nombre" VARCHAR(50) [unique, not null]
  "descripcion" TEXT
  "fecha_creacion" TIMESTAMP [not null, default: `CURRENT_TIMESTAMPATTIMEZONE'UTC'`]
  "fecha_modificacion" TIMESTAMP [default: `NULL`]
}

Table "estado_accion_mitigacion" {
  "id" INT [pk, not null, increment]
  "nombre" VARCHAR(50) [unique, not null]
  "descripcion" TEXT
  "fecha_creacion" TIMESTAMP [not null, default: `CURRENT_TIMESTAMPATTIMEZONE'UTC'`]
  "fecha_modificacion" TIMESTAMP [default: `NULL`]
}

Table "registro_meteorologico" {
  "id" INT [pk, not null, increment]
  "lote_id" INT [not null]
  "fecha" DATE [not null]
  "temperatura_min" DECIMAL(4,2) [not null]
  "temperatura_max" DECIMAL(4,2) [not null]
  "temperatura_promedio" DECIMAL(4,2) [not null]
  "temperatura_unidad_id" INT
  "presion_atmosferica" DECIMAL(6,2) [not null]
  "presion_unidad_id" INT
  "humedad_relativa" DECIMAL(5,2) [not null]
  "humedad_unidad_id" INT
  "precipitacion" DECIMAL(6,2) [not null]
  "precipitacion_unidad_id" INT
  "indice_uv" DECIMAL(3,1) [not null]
  "horas_sol" DECIMAL(4,2) [not null]
  "fecha_creacion" TIMESTAMP [not null, default: `CURRENT_TIMESTAMPATTIMEZONE'UTC'`]
  "fecha_modificacion" TIMESTAMP [default: `NULL`]
}

Table "color_suelo" {
  "id" INT [pk, not null, increment]
  "nombre" VARCHAR(50) [unique, not null]
  "descripcion" TEXT
  "fecha_creacion" TIMESTAMP [not null, default: `CURRENT_TIMESTAMPATTIMEZONE'UTC'`]
  "fecha_modificacion" TIMESTAMP [default: `NULL`]
}

Table "textura_suelo" {
  "id" INT [pk, not null, increment]
  "nombre" VARCHAR(50) [unique, not null]
  "descripcion" TEXT
  "fecha_creacion" TIMESTAMP [not null, default: `CURRENT_TIMESTAMPATTIMEZONE'UTC'`]
  "fecha_modificacion" TIMESTAMP [default: `NULL`]
}

Table "tonos_munsell" {
  "id" INT [pk, not null, increment]
  "tono" VARCHAR(5) [unique, not null]
  "descripcion" TEXT
}

Table "valores_munsell" {
  "id" INT [pk, not null, increment]
  "tono_id" INT [not null]
  "valor" INT [not null]
  "croma" INT [not null]
}

Table "tipo_suelo" {
  "id" INT [pk, not null, increment]
  "nombre" VARCHAR(50) [unique, not null]
  "descripcion" TEXT
  "color_id" INT [not null]
  "textura_id" INT [not null]
  "munsell_id" INT
  "caracteristicas_generales" TEXT
  "recomendaciones_manejo" TEXT
  "fecha_creacion" TIMESTAMP [not null, default: `CURRENT_TIMESTAMPATTIMEZONE'UTC'`]
  "fecha_modificacion" TIMESTAMP [default: `NULL`]
}

Table "analisis_suelo" {
  "id" INT [pk, not null, increment]
  "lote_id" INT [not null]
  "tipo_suelo_id" INT [not null]
  "fecha_analisis" DATE [not null]
  "imagen_suelo" BYTEA [not null]
  "confianza_clasificacion" DECIMAL(5,2) [not null]
  "observaciones" TEXT
  "fecha_creacion" TIMESTAMP [not null, default: `CURRENT_TIMESTAMPATTIMEZONE'UTC'`]
  "fecha_modificacion" TIMESTAMP [default: `NULL`]
}

Table "deteccion_gusano_cogollero" {
  "id" INT [pk, not null, increment]
  "lote_id" INT [not null]
  "fecha_deteccion" TIMESTAMP [not null]
  "imagen_planta" BYTEA [not null]
  "resultado_deteccion" deteccion_gusano_cogollero_resultado_deteccion_enum [not null]
  "confianza_deteccion" DECIMAL(5,2) [not null]
  "latitud" DECIMAL(10,8)
  "longitud" DECIMAL(11,8)
  "observaciones" TEXT
  "fecha_creacion" TIMESTAMP [default: `CURRENT_TIMESTAMPATTIMEZONE'UTC'`]
  "fecha_modificacion" TIMESTAMP [default: `NULL`]
}

Table "estado_informe" {
  "id" INT [pk, not null, increment]
  "nombre" VARCHAR(50) [unique, not null]
  "descripcion" TEXT
  "fecha_creacion" TIMESTAMP [not null, default: `CURRENT_TIMESTAMPATTIMEZONE'UTC'`]
  "fecha_modificacion" TIMESTAMP [default: `NULL`]
}

Table "tipo_informe" {
  "id" INT [pk, not null, increment]
  "nombre" VARCHAR(50) [unique, not null]
  "descripcion" TEXT
  "fecha_creacion" TIMESTAMP [not null, default: `CURRENT_TIMESTAMPATTIMEZONE'UTC'`]
  "fecha_modificacion" TIMESTAMP [default: `NULL`]
}

Table "informe" {
  "id" INT [pk, not null, increment]
  "tipo_informe_id" INT [not null]
  "lote_id" INT
  "fecha_generacion" TIMESTAMP [not null, default: `CURRENT_TIMESTAMPATTIMEZONE'UTC'`]
  "periodo_inicio" DATE [not null]
  "periodo_fin" DATE [not null]
  "contenido" JSON [not null]
  "estado_id" INT [not null]
  "fecha_revision" TIMESTAMP
  "observaciones" TEXT
  "fecha_creacion" TIMESTAMP [not null, default: `CURRENT_TIMESTAMPATTIMEZONE'UTC'`]
  "fecha_modificacion" TIMESTAMP [default: `NULL`]
}

Ref:"usuario"."id" < "usuario_finca_rol"."usuario_id"

Ref:"finca"."id" < "usuario_finca_rol"."finca_id"

Ref:"rol"."id" < "usuario_finca_rol"."rol_id"

Ref:"usuario"."id" < "asignacion"."usuario_id"

Ref:"tarea_labor_cultural"."id" < "asignacion"."tarea_labor_cultural_id"

Ref:"usuario"."id" < "verificacion_dos_pasos"."usuario_id" [delete: cascade]

Ref:"usuario"."id" < "confirmacion_usuario"."usuario_id" [delete: cascade]

Ref:"usuario"."id" < "recuperacion_contrasena"."usuario_id" [delete: cascade]

Ref:"estado_usuario"."id" < "usuario"."state_id"

Ref:"usuario"."id" < "blacklisted_tokens"."usuario_id"

Ref:"rol"."id" < "rol_permiso"."rol_id"

Ref:"permiso"."id" < "rol_permiso"."permiso_id"

Ref:"unidad_medida"."id" < "finca"."unidad_area_id"

Ref:"finca"."id" < "lote"."finca_id"

Ref:"unidad_medida"."id" < "lote"."unidad_area_id"

Ref:"unidad_medida"."id" < "variedad_maiz"."altura_planta_unidad_id"

Ref:"unidad_medida"."id" < "variedad_maiz"."rendimiento_promedio_unidad_id"

Ref:"tipo_grano"."id" < "variedad_maiz"."tipo_grano_id"

Ref:"unidad_medida"."id" < "variedad_maiz"."densidad_siembra_unidad_id"

Ref:"lote"."id" < "cultivo"."lote_id"

Ref:"variedad_maiz"."id" < "cultivo"."variedad_maiz_id"

Ref:"unidad_medida"."id" < "cultivo"."area_sembrada_unidad_id"

Ref:"unidad_medida"."id" < "cultivo"."densidad_siembra_unidad_id"

Ref:"estado_cultivo"."id" < "cultivo"."estado_id"

Ref:"unidad_medida"."id" < "cultivo"."produccion_total_unidad_id"

Ref:"unidad_medida"."id" < "cultivo"."precio_venta_unitario_unidad_id"

Ref:"categoria_unidad_medida"."id" < "unidad_medida"."categoria_id"

Ref:"tipo_labor_cultural"."id" < "tarea_labor_cultural"."tipo_labor_id"

Ref:"estado_tarea_labor_cultural"."id" < "tarea_labor_cultural"."estado_id"

Ref:"lote"."id" < "tarea_labor_cultural"."lote_id"

Ref:"unidad_medida"."id" < "tipo_insumo_agricola"."unidad_medida_id"

Ref:"variedad_maiz"."id" < "etapa_fenologica"."variedad_maiz_id"

Ref:"cultivo"."id" < "caracteristicas_fenotipicas"."cultivo_id"

Ref:"unidad_medida"."id" < "caracteristicas_fenotipicas"."altura_planta_unidad_id"

Ref:"unidad_medida"."id" < "caracteristicas_fenotipicas"."diametro_tallo_unidad_id"

Ref:"lote"."id" < "alerta"."lote_id"

Ref:"tipo_alerta"."id" < "alerta"."tipo_alerta"

Ref:"estado_alerta"."id" < "alerta"."estado_id"

Ref:"usuario"."id" < "notificacion"."usuario_id"

Ref:"tipo_notificacion"."id" < "notificacion"."tipo_notificacion"

Ref:"estado_notificacion"."id" < "notificacion"."estado_id"

Ref:"lote"."id" < "recomendacion"."lote_id"

Ref:"tipo_recomendacion"."id" < "recomendacion"."tipo_recomendacion_id"

Ref:"estado_recomendacion"."id" < "recomendacion"."estado_id"

Ref:"recomendacion"."id" < "accion_mitigacion"."recomendacion_id"

Ref:"estado_accion_mitigacion"."id" < "accion_mitigacion"."estado_id"

Ref:"tarea_labor_cultural"."id" < "aplicacion_insumo"."tarea_labor_id"

Ref:"tipo_insumo_agricola"."id" < "aplicacion_insumo"."insumo_id"

Ref:"tarea_labor_cultural"."id" < "uso_maquinaria"."tarea_labor_id"

Ref:"tipo_maquinaria_agricola"."id" < "uso_maquinaria"."maquinaria_id"

Ref:"lote"."id" < "registro_meteorologico"."lote_id"

Ref:"unidad_medida"."id" < "registro_meteorologico"."temperatura_unidad_id"

Ref:"unidad_medida"."id" < "registro_meteorologico"."presion_unidad_id"

Ref:"unidad_medida"."id" < "registro_meteorologico"."humedad_unidad_id"

Ref:"unidad_medida"."id" < "registro_meteorologico"."precipitacion_unidad_id"

Ref:"tonos_munsell"."id" < "valores_munsell"."tono_id"

Ref:"color_suelo"."id" < "tipo_suelo"."color_id"

Ref:"textura_suelo"."id" < "tipo_suelo"."textura_id"

Ref:"valores_munsell"."id" < "tipo_suelo"."munsell_id"

Ref:"lote"."id" < "analisis_suelo"."lote_id"

Ref:"tipo_suelo"."id" < "analisis_suelo"."tipo_suelo_id"

Ref:"lote"."id" < "deteccion_gusano_cogollero"."lote_id"

Ref:"tipo_informe"."id" < "informe"."tipo_informe_id"

Ref:"lote"."id" < "informe"."lote_id"

Ref:"estado_informe"."id" < "informe"."estado_id"
